<?xml version="1.0" encoding="UTF-8" standalone="no"?>
<!DOCTYPE svg PUBLIC "-//W3C//DTD SVG 1.1//EN" "http://www.w3.org/Graphics/SVG/1.1/DTD/svg11.dtd">
<svg width="100%" height="100%" viewBox="0 0 8097 2000" version="1.1" xmlns="http://www.w3.org/2000/svg" xmlns:xlink="http://www.w3.org/1999/xlink" xml:space="preserve" xmlns:serif="http://www.serif.com/" style="fill-rule:evenodd;clip-rule:evenodd;stroke-linejoin:round;stroke-miterlimit:1.41421;">
    <g transform="matrix(8.55263,0,0,8.55263,2235.58,-316.947)">
        <path d="M595.027,82.667L578.644,82.667L578.644,133.181L542.054,246L510.266,246L533.71,219.333L527.167,219.333C504.63,219.333 486.333,201.037 486.333,178.5L486.333,96.833C486.333,74.297 504.63,56 527.167,56L603.676,56L595.027,82.667ZM517.104,162.667C526.538,162.667 534.198,170.135 534.198,179.333C534.198,188.532 526.538,196 517.104,196C507.669,196 500.009,188.532 500.009,179.333C500.009,170.135 507.669,162.667 517.104,162.667ZM564.968,82.667L503.428,82.667L503.428,136L564.968,136L564.968,82.667Z" style="fill:rgb(31,55,153);"/>
    </g>
    <g transform="matrix(8.55263,0,0,8.69023,1790.85,-255.189)">
        <path d="M690.813,208.11C691.078,209.723 691.218,211.403 691.218,213.13C691.218,225.137 684.453,234.884 676.12,234.884C667.787,234.884 661.022,225.137 661.022,213.13C661.022,211.403 661.162,209.722 661.427,208.11L613.925,208.11L636.379,138.942L676.4,138.942C683.961,138.942 682.271,133.934 682.271,126.392C682.271,126.392 679.522,102.546 676.679,95.712C674.704,90.965 672.777,85.393 665.216,85.393L653.763,85.393L659.225,68.566C659.588,67.963 665.766,48.419 665.766,48.419C678.625,48.561 683.979,56.194 686.423,60.962C687.395,62.858 688.502,65.34 689.014,66.428C693.882,76.761 703.485,132.249 703.485,132.249L703.52,132.249L703.52,208.11L690.813,208.11ZM675.561,160.139C683.585,160.139 690.1,166.366 690.1,174.037C690.1,181.708 683.585,187.936 675.561,187.936C667.536,187.936 661.022,181.708 661.022,174.037C661.022,166.366 667.536,160.139 675.561,160.139Z" style="fill:rgb(0,122,255);"/>
    </g>
    <g transform="matrix(1.23305,0,0,1.23305,-113.047,380.327)">
        <text x="341.663px" y="928.908px" style="font-family:'ShreeDev0714', 'Shree Devanagari 714';font-size:1200px;">Charlie5</text>
    </g>
</svg>
